# xmcd CD database file
#
# Track frame offsets:
#	150
#	28438
#	56374
#	67989
#	97800
#	118051
#	134386
#	158508
#	171825
#	191462
#	195220
#	205755
#	226392
#	247675
#	271607
#	277455
#
# Disc length: 3957 seconds
#
# Revision: 1
# Processed by: cddbd v1.5.2PL0 Copyright (c) Steve Scherf et al.
# Submitted via: CDex 1.51
#
DISCID=d40f7310
DTITLE=Kip Hanrahan - Beautiful Scars
DYEAR=2007
DGENRE=Jazz
TTITLE0=Busses From Heaven
TTITLE1=Real Time And Beautiful Scars
TTITLE2=The Girl That Won't Resolve
TTITLE3=Caravaggio/A Quick Balance
TTITLE4=Night Cumbia
TTITLE5=One Summer Afternoon (For Gil Evans)
TTITLE6=Xiomarra Wears The Heat Beautifully
TTITLE7=Paris Through Tears
TTITLE8=Montana
TTITLE9=Leijia Heads To Brooklyn
TTITLE10=Milton Cardona
TTITLE11=Salt In The Mozambique Night (Glasgow, for Jack Bruce)
TTITLE12=Rumba Of Cities
TTITLE13=The Accounting Of Morning
TTITLE14=Winterscape With I.M.F.
TTITLE15=City of Gold (Palestine Blues)
EXTD=YEAR: 2007
EXTT0=
EXTT1=
EXTT2=
EXTT3=
EXTT4=
EXTT5=
EXTT6=
EXTT7=
EXTT8=
EXTT9=
EXTT10=
EXTT11=
EXTT12=
EXTT13=
EXTT14=
EXTT15=
PLAYORDER=
